<?xml version="1.0" encoding="utf-8"?>
<!-- Generator: Adobe Illustrator 27.5.0, SVG Export Plug-In . SVG Version: 6.00 Build 0)  -->
<svg version="1.1" xmlns="http://www.w3.org/2000/svg" xmlns:xlink="http://www.w3.org/1999/xlink" x="0px" y="0px"
	 viewBox="0 0 500 500" style="enable-background:new 0 0 500 500;" xml:space="preserve">
<g id="BACKGROUND">
	<rect style="fill:#FAFAFF;" width="500" height="500"/>
</g>
<g id="OBJECTS">
	<rect x="30" y="476" style="fill:#193B59;" width="440" height="2"/>
	<g>
		<circle style="fill:#EBF5FF;" cx="176.417" cy="323.653" r="147.942"/>
		<circle style="fill:#EBF5FF;" cx="337.675" cy="285.071" r="82.19"/>
	</g>
	<g>
		<path style="opacity:0.25;fill:#96C1FA;" d="M193.989,40.3h-6.575c-1.211,0-2.192-0.981-2.192-2.192v-6.575
			c0-1.21,0.981-2.192,2.192-2.192h6.575c1.21,0,2.192,0.981,2.192,2.192v6.575C196.181,39.319,195.2,40.3,193.989,40.3z"/>
		<path style="opacity:0.25;fill:#96C1FA;" d="M436.836,59.949h-6.575c-1.211,0-2.192-0.981-2.192-2.192v-6.575
			c0-1.21,0.981-2.192,2.192-2.192h6.575c1.21,0,2.192,0.981,2.192,2.192v6.575C439.028,58.967,438.047,59.949,436.836,59.949z"/>
		<g>
			<path style="opacity:0.25;fill:#96C1FA;" d="M95.419,227.227H77.885c-1.211,0-2.192-0.981-2.192-2.192v-17.534
				c0-1.21,0.981-2.192,2.192-2.192h17.534c1.211,0,2.192,0.981,2.192,2.192v17.534C97.61,226.245,96.629,227.227,95.419,227.227z"
				/>
			<path style="opacity:0.25;fill:#96C1FA;" d="M84.46,216.268H55.968c-1.21,0-2.192-0.981-2.192-2.192v-28.492
				c0-1.21,0.981-2.192,2.192-2.192H84.46c1.21,0,2.192,0.981,2.192,2.192v28.492C86.652,215.286,85.671,216.268,84.46,216.268z"/>
		</g>
		<g>
			<path style="opacity:0.25;fill:#96C1FA;" d="M397.385,408.929h17.534c1.21,0,2.192-0.981,2.192-2.192v-17.534
				c0-1.21-0.981-2.192-2.192-2.192h-17.534c-1.21,0-2.192,0.981-2.192,2.192v17.534
				C395.193,407.948,396.175,408.929,397.385,408.929z"/>
			<path style="opacity:0.25;fill:#96C1FA;" d="M408.344,397.971h28.492c1.211,0,2.192-0.981,2.192-2.192v-28.492
				c0-1.21-0.981-2.192-2.192-2.192h-28.492c-1.21,0-2.192,0.981-2.192,2.192v28.492
				C406.152,396.99,407.133,397.971,408.344,397.971z"/>
		</g>
		<path style="opacity:0.25;fill:#96C1FA;" d="M188.51,74.965h-17.534c-1.21,0-2.192-0.981-2.192-2.192V55.239
			c0-1.21,0.981-2.192,2.192-2.192h17.534c1.21,0,2.192,0.981,2.192,2.192v17.534C190.702,73.984,189.72,74.965,188.51,74.965z"/>
		<path style="opacity:0.25;fill:#96C1FA;" d="M49.239,342.189v-17.534c0-1.211,0.981-2.192,2.192-2.192h17.534
			c1.21,0,2.192,0.981,2.192,2.192v17.534c0,1.211-0.981,2.192-2.192,2.192H51.431C50.22,344.381,49.239,343.4,49.239,342.189z"/>
		<path style="opacity:0.25;fill:#96C1FA;" d="M80.23,304.36v-6.575c0-1.211,0.981-2.192,2.192-2.192h6.575
			c1.211,0,2.192,0.981,2.192,2.192v6.575c0,1.21-0.981,2.192-2.192,2.192h-6.575C81.211,306.552,80.23,305.57,80.23,304.36z"/>
		<path style="opacity:0.25;fill:#96C1FA;" d="M436.836,235.988h-6.575c-1.21,0-2.192-0.981-2.192-2.192v-6.575
			c0-1.21,0.981-2.192,2.192-2.192h6.575c1.21,0,2.192,0.981,2.192,2.192v6.575C439.028,235.007,438.047,235.988,436.836,235.988z"
			/>
	</g>
	<g style="opacity:0.6;">
		<path style="fill:#96C1FA;" d="M348.299,302.462h98.59l-10.302-14.265c-2.86-3.96-7.447-6.306-12.332-6.306l0,0
			c-4.681,0-9.1,2.155-11.983,5.842l-5.068,6.482l-8.001-10.445c-1.371-1.789-3.488-2.85-5.742-2.875l0,0
			c-3.687-0.041-6.832,2.66-7.347,6.311l-1.181,8.361L348.299,302.462z"/>
		<path style="fill:#96C1FA;" d="M46.069,131.21h137.418v0c-4.882-5.841-12.102-9.216-19.714-9.216h-19.114l-2.966-11.521
			c-2.229-8.659-10.036-14.711-18.978-14.711l0,0c-6.727,0-12.984,3.451-16.574,9.14l-8.077,12.802H80.163
			c-7.378,0-14.621,1.982-20.97,5.74L46.069,131.21z"/>
	</g>
	<g>
		<g style="opacity:0.6;">
			
				<ellipse transform="matrix(0.9717 -0.2364 0.2364 0.9717 -47.0011 56.5794)" style="fill:#96C1FA;" cx="212.483" cy="224.324" rx="65.486" ry="65.486"/>
			
				<ellipse transform="matrix(0.7071 -0.7071 0.7071 0.7071 -11.1431 267.5223)" style="fill:#96C1FA;" cx="317.356" cy="147.212" rx="115.391" ry="115.391"/>
		</g>
		<g>
			
				<ellipse transform="matrix(0.5191 -0.8547 0.8547 0.5191 25.1132 256.4533)" style="fill:#E58A45;" cx="240.465" cy="105.909" rx="24" ry="24"/>
			<g style="opacity:0.6;">
				<path style="fill:#BF504C;" d="M257.997,89.519c-2.513,1.236-5.297,2.584-8.082,2.449c-3.001-0.145-5.925-0.9-8.934-0.903
					c-1.942-0.002-3.935,0.019-5.77,0.724c-2.661,1.023-4.826,3.342-7.643,3.96c-2.72,0.597-5.445-0.682-7.891-1.823
					c-0.793,1.376-1.451,2.83-1.96,4.343c1.225,0.249,2.475,0.344,3.775,0.208c4.845-0.505,9.031-3.301,13.786-4.064
					c2.286-0.367,4.644-0.921,6.951-0.437c3.335,0.7,5.901,1.731,9.344,0.593c2.656-0.878,5.165-2.21,7.616-3.671
					C258.809,90.423,258.412,89.962,257.997,89.519z"/>
				<path style="fill:#BF504C;" d="M263.209,98.267c-1.657,1.002-3.11,2.273-4.885,3.221c-1.754,0.937-3.507,1.449-5.433,1.811
					c-1.697,0.319-2.716,0.39-4.43,0.059c-1.346-0.26-2.79-0.703-4.161-0.688c-4.735,0.051-9.684,3.352-13.719,5.437
					c-4.065,2.101-9.497,2.362-13.91,0.916c0.118,0.896,0.283,1.794,0.507,2.692c0.22,0.883,0.491,1.74,0.8,2.573
					c2.017,0.392,4.186,0.411,6.202,0.326c3.69-0.155,7.635-0.401,10.471-3.042c1.9-1.768,3.16-4,5.523-5.228
					c1.876-0.975,3.901-1.159,5.986-1.118c2.517,0.049,4.814,1.089,7.315,1.392c3.148,0.382,6.43,0.089,9.551-0.416
					c0.456-0.074,0.941-0.171,1.44-0.29c-0.001-1.917-0.23-3.865-0.714-5.809C263.596,99.477,263.41,98.868,263.209,98.267z"/>
				<path style="fill:#BF504C;" d="M262.319,115.815c-1.588,0.478-3.185,0.837-4.879,1.078c-4.767,0.68-11.215-0.941-15.356,1.857
					c-2.761,1.865-5.094,4.855-8.407,5.803c-1.631,0.467-3.328,0.1-4.983,0.007c-1.157-0.064-2.305-0.056-3.453-0.099
					c1.564,1.281,3.285,2.358,5.116,3.21c0.634,0.061,1.271,0.098,1.918,0.073c2.704-0.104,5.32-0.178,7.986-0.755
					c3.95-0.855,7.216-3.175,10.597-5.251c3.241-1.989,6.773-3.405,10.512-4.054C261.713,117.076,262.029,116.453,262.319,115.815z"
					/>
			</g>
			<path style="opacity:0.25;fill:#BF504C;" d="M249.585,118.306c-12.861,3.207-25.887-4.62-29.093-17.481
				c-0.597-2.393-0.81-4.792-0.681-7.133c-3.099,5.239-4.222,11.65-2.633,18.023c3.207,12.861,16.232,20.688,29.093,17.481
				c10.468-2.61,17.599-11.724,18.162-21.961C261.278,112.569,256.074,116.688,249.585,118.306z"/>
		</g>
		<g>
			
				<path style="fill:none;stroke:#BF504C;stroke-width:1.7989;stroke-linecap:round;stroke-linejoin:round;stroke-miterlimit:10;" d="
				M340.072,183.647c-2.276-5.633,19.541-19.759,48.729-31.552c29.188-11.793,54.694-16.786,56.97-11.154"/>
			<circle style="fill:#E58A45;" cx="392.922" cy="162.294" r="35"/>
			<g style="opacity:0.6;">
				<path style="fill:#BF504C;" d="M370.526,143.746c-1.211-1.61,2.414-3.581,3.549-3.905c2.786-0.794,4.718,0.071,6.466,2.266
					c0.9,1.131,1.354,1.998,1.034,3.424c-0.475,2.116-0.533,2.84,0.157,4.932c0.864,2.618,0.725,4.487-1.983,5.416
					c-2.288,0.784-4.698,0.429-6.71-0.99c-2.096-1.478-4.555-4.186-3.233-6.706c0.777-1.483,1.702-2.809,0.72-4.316"/>
				<path style="fill:#BF504C;" d="M403.406,134.626c1.285-0.572,2.988,0.428,3.846,1.443c1.128,1.333,0.771,2.542,1.071,4.104
					c0.278,1.453,0.813,3.012-0.46,4.175c-2.107,1.926-5.036,0.188-6.18-1.903C400.046,139.457,400.155,136.072,403.406,134.626z"/>
				<path style="fill:#BF504C;" d="M418.212,175.224c-2.134-0.963-4.269,0.189-5.294,2.253c-0.987,1.987-0.511,4.007-2.429,5.634
					c-1.562,1.326-3.46,0.884-5.092,1.813c-1.495,0.85-2.494,3.099-1.365,4.643c0.797,1.09,4.356,0.705,5.866,0.186
					c2.529-0.87,5.016-3.035,6.76-4.984C418.379,182.846,422.097,176.976,418.212,175.224z"/>
				<path style="fill:#BF504C;" d="M407.158,179.746c2.938-1.502,1.092-7.306-2.513-4.861
					C402.641,176.244,403.078,180.946,407.158,179.746z"/>
				<path style="fill:#BF504C;" d="M375.686,174.585c-3.048,0.342-3.583,5.482-2.528,7.73c0.935,1.994,2.483,3.137,4.218,4.397
					c1.471,1.069,2.831,3.758,4.727,3.851c3.302,0.161,5.925-4.992,4.026-7.568c-0.849-1.151-2.123-1.663-3.248-2.465
					c-1.398-0.997-1.903-2.076-2.993-3.308C379.188,176.429,376.848,174.455,375.686,174.585z"/>
				<path style="fill:#BF504C;" d="M394.406,152.386c-1.8-0.041-2.289,2.949-2.286,3.741c0.006,1.474,1.583,3.644,2.59,1.599
					c0.225-0.457,0.082-1.038,0.326-1.467c0.353-0.621,1.018-0.798,1.291-1.523C396.815,153.441,395.891,152.419,394.406,152.386z"
					/>
				<path style="fill:#BF504C;" d="M419.764,153.371c-1.749-2.861-0.228-7.572,2.116-3.841c1.009,1.607,1.98,4.888,1.536,6.733
					c-0.294,1.22-2.199,3.344-3.385,1.698C419.269,156.902,420.477,154.537,419.764,153.371z"/>
				<path style="fill:#BF504C;" d="M389.726,131.266c-1.913,0.698,0.687,4.647,1.794,1.854
					C391.852,132.284,390.789,130.878,389.726,131.266z"/>
				<path style="fill:#BF504C;" d="M391.533,168.355c-1.913,0.698,0.687,4.647,1.794,1.854
					C393.659,169.373,392.597,167.967,391.533,168.355z"/>
				<path style="fill:#BF504C;" d="M364.886,169.666c-1.389-0.671-1.965-1.641-2.04-3.12c-0.058-1.144,0.095-2.68,1.56-2.64
					c1.686,0.046,0.872,1.928,1.344,3.123c0.236,0.598,1.106,1.28,0.792,2.01C366.294,169.615,365.344,169.887,364.886,169.666z"/>
				<path style="fill:#BF504C;" d="M399.716,136.756c-1.482,2.817-0.176,6.81,2.517,8.508c0.582,0.367,3.469,0.955,2.37,1.914
					c-0.456,0.397-1.694,0.157-2.181,0.019c-1.699-0.485-3.152-1.84-4.017-3.369C397.034,141.404,397.356,138.331,399.716,136.756z"
					/>
				<path style="fill:#BF504C;" d="M376.091,173.161c1.483-0.784,3.331,0.162,4.421,1.262c1.632,1.646,2.51,3.896,4.56,5.084
					c1.408,0.816,2.43,1.784,3.009,3.341c0.1,0.268,0.181,1.302,0.452,1.444c0.419,0.219,0.562-0.812,0.565-1.074
					c0.015-1.462-1.172-2.643-2.279-3.42c-1.266-0.888-2.682-1.633-3.732-2.795c-1.641-1.816-2.52-4.978-5.329-5.291
					c-0.689-0.077-2.024,0.071-2.156,0.992C375.561,172.983,375.792,173.198,376.091,173.161z"/>
			</g>
			<path style="opacity:0.25;fill:#BF504C;" d="M397.875,181.636c-19.33,0-35-15.67-35-35c0-0.827,0.039-1.645,0.095-2.458
				c-3.203,5.285-5.048,11.485-5.048,18.116c0,19.33,15.67,35,35,35c18.503,0,33.641-14.36,34.904-32.542
				C421.692,174.873,410.574,181.636,397.875,181.636z"/>
			
				<path style="fill:none;stroke:#BF504C;stroke-width:1.7989;stroke-linecap:round;stroke-linejoin:round;stroke-miterlimit:10;" d="
				M445.771,140.942c2.276,5.633-19.541,19.759-48.729,31.552c-29.188,11.793-54.694,16.786-56.97,11.154"/>
		</g>
		<g>
			<path style="fill:#FAFAFF;" d="M364.451,97.68c-4.71,1.351-5.413,2.446-6.28,9.785c-0.867-7.339-1.57-8.434-6.28-9.785
				c4.71-1.351,5.413-2.446,6.28-9.785C359.038,95.234,359.74,96.329,364.451,97.68z"/>
			<path style="fill:#FAFAFF;" d="M253.84,158.792c-4.71,1.351-5.413,2.446-6.28,9.785c-0.867-7.339-1.57-8.434-6.28-9.785
				c4.71-1.351,5.413-2.446,6.28-9.785C248.427,156.346,249.13,157.441,253.84,158.792z"/>
			<path style="fill:#FAFAFF;" d="M268.863,139.986c-2.928,0.84-3.365,1.521-3.904,6.083c-0.539-4.563-0.976-5.243-3.904-6.083
				c2.928-0.84,3.365-1.521,3.904-6.083C265.498,138.465,265.935,139.146,268.863,139.986z"/>
			<path style="fill:#FAFAFF;" d="M338.73,250.484c-2.928,0.84-3.365,1.521-3.904,6.083c-0.539-4.563-0.976-5.243-3.904-6.083
				c2.928-0.84,3.365-1.521,3.904-6.083C335.365,248.964,335.802,249.645,338.73,250.484z"/>
			<path style="fill:#FAFAFF;" d="M185.332,224.426c-2.928,0.84-3.365,1.521-3.904,6.083c-0.539-4.563-0.976-5.243-3.904-6.083
				c2.928-0.84,3.365-1.521,3.904-6.083C181.967,222.905,182.404,223.586,185.332,224.426z"/>
			<path style="fill:#FAFAFF;" d="M329.344,48.99c-2.928,0.84-3.365,1.521-3.904,6.083c-0.539-4.563-0.976-5.243-3.904-6.083
				c2.928-0.84,3.365-1.521,3.904-6.083C325.979,47.469,326.416,48.15,329.344,48.99z"/>
			<path style="fill:#FAFAFF;" d="M282.462,76.015c-2.011,0.577-2.311,1.045-2.682,4.178c-0.37-3.134-0.67-3.601-2.682-4.178
				c2.011-0.577,2.311-1.045,2.682-4.178C280.15,74.97,280.45,75.438,282.462,76.015z"/>
			<path style="fill:#FAFAFF;" d="M372.763,207.701c-2.011,0.577-2.311,1.045-2.682,4.178c-0.37-3.134-0.67-3.602-2.682-4.178
				c2.011-0.577,2.311-1.045,2.682-4.178C370.452,206.656,370.752,207.124,372.763,207.701z"/>
			<path style="fill:#FAFAFF;" d="M311.874,173.269c-2.011,0.577-2.311,1.045-2.682,4.178c-0.37-3.134-0.67-3.602-2.682-4.178
				c2.011-0.577,2.311-1.045,2.682-4.178C309.563,172.224,309.863,172.692,311.874,173.269z"/>
			<path style="fill:#FAFAFF;" d="M231.167,277.998c-2.011,0.577-2.311,1.045-2.682,4.178c-0.37-3.134-0.67-3.602-2.682-4.178
				c2.011-0.577,2.311-1.045,2.682-4.178C228.856,276.953,229.156,277.421,231.167,277.998z"/>
			<path style="fill:#FAFAFF;" d="M416.178,82.391c-2.011,0.577-2.311,1.045-2.682,4.178c-0.37-3.134-0.67-3.602-2.682-4.178
				c2.011-0.577,2.311-1.045,2.682-4.178C413.866,81.347,414.166,81.814,416.178,82.391z"/>
		</g>
		<g>
			
				<polyline style="fill:none;stroke:#FAFAFF;stroke-width:1.7989;stroke-linecap:round;stroke-linejoin:round;stroke-miterlimit:10;" points="
				320.185,211.285 289.945,201.417 271.225,209.337 250.969,208.257 240.866,227.481 212.005,221.265 212.775,196.277 
				250.969,208.257 			"/>
			<g>
				<circle style="fill:#FAFAFF;" cx="320.185" cy="211.285" r="3"/>
				<circle style="fill:#FAFAFF;" cx="289.855" cy="201.295" r="3"/>
				<circle style="fill:#FAFAFF;" cx="250.736" cy="208.345" r="3"/>
				<circle style="fill:#FAFAFF;" cx="212.005" cy="220.808" r="3"/>
				<circle style="fill:#FAFAFF;" cx="271.065" cy="208.879" r="3"/>
				<circle style="fill:#FAFAFF;" cx="212.985" cy="196.277" r="3"/>
				<circle style="fill:#FAFAFF;" cx="240.465" cy="227.481" r="3"/>
			</g>
		</g>
		<g>
			<path style="fill:#FAFAFF;" d="M336.54,133.902l-61.754,34.231c-0.411,0.228-0.571,0.737-0.365,1.159l0,0
				c0.226,0.462,0.797,0.634,1.241,0.374L336.54,133.902z"/>
			<path style="fill:#FAFAFF;" d="M343.793,122.323l-37.116,20.574c-0.347,0.193-0.48,0.625-0.301,0.979l0,0
				c0.194,0.382,0.671,0.52,1.039,0.299L343.793,122.323z"/>
		</g>
	</g>
	<g>
		<g style="opacity:0.6;">
			<path style="fill:#96C1FA;" d="M353.429,344.77c-19.06,30.799,6.991,35.445-1.309,63.355
				C367.9,379.315,344.19,379.971,353.429,344.77z"/>
			<path style="fill:#96C1FA;" d="M341.518,389.876c-9.53,15.399,1.994,19.224-0.654,31.678
				C349.498,406.635,336.899,407.477,341.518,389.876z"/>
		</g>
		<g>
			<path style="fill:#E58A45;" d="M364.884,476h-32.088c-1.087,0-1.975-0.869-1.999-1.956l-0.888-39.978
				c-0.037-1.683,1.316-3.067,2.999-3.067h31.865c1.683,0,3.037,1.384,2.999,3.067l-0.888,39.978
				C366.86,475.131,365.971,476,364.884,476z"/>
			<path style="fill:none;stroke:#E58A45;stroke-width:5;stroke-linecap:round;stroke-linejoin:round;stroke-miterlimit:10;" d="
				M332.147,441.494h-8.565c-3.998,0-7.047,3.578-6.413,7.525l1.978,12.311c0.506,3.149,3.223,5.465,6.413,5.465h8.556
				L332.147,441.494z"/>
			
				<line style="fill:none;stroke:#7A1F0C;stroke-width:1.7989;stroke-linecap:round;stroke-linejoin:round;stroke-miterlimit:10;" x1="330.736" y1="471.295" x2="329.908" y2="436.855"/>
			<g>
				<path style="fill:#FAFAFF;" d="M363.828,445.771l0.095-4.508c0.02-0.951-0.745-1.733-1.697-1.733l0,0
					c-0.909,0-1.657,0.717-1.695,1.625l-0.19,4.495c-0.037,0.881,0.606,1.644,1.481,1.755l0.095,0.012
					C362.917,447.546,363.807,446.779,363.828,445.771z"/>
				<path style="fill:#FAFAFF;" d="M359.965,454.533l-0.49,11.589c-0.041,0.964,0.73,1.769,1.695,1.769h0.528
					c0.923,0,1.677-0.738,1.697-1.661l0.245-11.565c0.019-0.896-0.663-1.653-1.556-1.727l-0.283-0.023
					C360.84,452.834,360.006,453.569,359.965,454.533z"/>
			</g>
		</g>
	</g>
	<g>
		<g>
			<path style="fill:#193B59;" d="M130.05,242.709c-4.42,1.146-10.676,1.162-11.943,6.793c-0.256,1.139-0.264,2.295-0.594,3.417
				c-0.489,1.661-1.435,3.207-2.143,4.775c-1.113,2.463-1.006,5.371-0.62,8.042c0.281,1.948,1.108,3.075,2.133,4.68
				c1.123,1.757,2.113,3.803,2.505,6.439c2.352,15.82,5.823,20.591,18.493,30.228l33.392-21.455
				c7.095-4.483,10.296-8.11,11.533-18.751c1.039-1.561,2.555-6.752,2.84-8.605c0.484-3.143,0.234-6.779-0.727-9.818
				c-0.798-2.525-3.093-4.995-5.207-6.573c-2.962-2.213-7.07-1.496-10.009-3.437c-2.176-1.437-3.734-3.945-6.19-5.026
				c-2.874-1.265-7.276-0.359-10.206,0.458c-2.921,0.815-4.416-0.129-7.268-0.68c-2.666-0.515-6.241,0.07-8.779,1.089
				C133.537,235.78,131.818,239.428,130.05,242.709z"/>
			<g>
				<path style="fill:#E7B7B7;" d="M166.504,334.461c-1.111,2.916-7.959,10.623-16.386,10.623c-12.276,0-18.33-10.172-18.33-14.338
					l4.482-50.704l26.139,5.281C162.034,289.151,165.36,323.174,166.504,334.461z"/>
				<path style="fill:#7A1F0C;" d="M163.517,302.879l-21.168-2.045c0,0,1.002,16.96,22.732,19.153L163.517,302.879z"/>
			</g>
			<path style="fill:#E7B7B7;" d="M174.819,258.119c6.387,7.05,3.778,11.946,5.171,19.842c1.493,8.469,6.853,19.91,1.17,27.371
				c-5.885,7.727-22.108,10.914-35.73-1.173c-13.752-12.203-15.366-36.33-4.219-44.598
				C150.743,252.491,165.983,248.365,174.819,258.119z"/>
			<path style="fill:#193B59;" d="M181.428,267.12c-7.173,4.69-12.475-1.239-16.473-1.205c-3.762,0.032-6.17-0.12-10.247-3.233
				c-1.108,5.273-3.351,7.59-8.408,9.042c-8.118,5.826-4.682,16.885-7.739,17.424c-1.777,0.313-2.964-7.303-4.939-9.487
				c-8.114-8.975-6.205-20.125,3.914-26.935c10.106-6.79,23.501-10.76,32.296-5.695C178.63,252.113,181.428,267.12,181.428,267.12z"
				/>
			<g>
				<path style="fill:#7A1F0C;" d="M173.617,291.671c3.876-0.683,4.51-1.598,4.937-2.724c0.267-0.702-0.297-1.876-1.597-4.473
					c-0.892-1.787-1.905-3.812-2.589-5.707c-0.086-0.238-0.335-0.362-0.59-0.277c-0.239,0.087-0.363,0.35-0.277,0.59
					c0.701,1.947,1.773,4.086,2.632,5.807c0.73,1.456,1.637,3.27,1.587,3.665c-0.293,0.771-0.595,1.566-4.262,2.213
					c-0.251,0.044-0.417,0.283-0.373,0.533C173.129,291.548,173.367,291.716,173.617,291.671z"/>
				<path style="fill:#E3A2A2;" d="M146.432,286.076c-0.843,2.591,0.33,5.295,2.619,6.039c2.288,0.743,4.826-0.755,5.668-3.346
					c0.842-2.592-0.33-5.295-2.619-6.038C149.811,281.986,147.274,283.485,146.432,286.076z"/>
				<g>
					<path style="fill:#193B59;" d="M163.206,276.912c0.29,1.645,1.308,2.84,2.274,2.67c0.965-0.17,1.514-1.642,1.223-3.286
						c-0.29-1.645-1.308-2.84-2.274-2.669C163.464,273.796,162.916,275.267,163.206,276.912z"/>
					<path style="fill:#193B59;" d="M167.103,270.616c-0.146,1.305-3.669-0.386-5.472,0.12c-3.064,0.86-2.914,2.454-4.095,2.363
						c-0.409-1.405,1.262-3.584,3.937-4.242C165.43,267.886,167.103,270.616,167.103,270.616z"/>
				</g>
				<g>
					<path style="fill:#193B59;" d="M176.482,275.901c0.24,1.363,1.084,2.354,1.885,2.213c0.8-0.141,1.255-1.361,1.014-2.724
						c-0.24-1.364-1.085-2.354-1.885-2.213C176.695,273.318,176.241,274.538,176.482,275.901z"/>
					<path style="fill:#193B59;" d="M174.896,271.076c0.172,0.975,2.625-0.487,3.858-0.19c2.051,0.494,2.372,2.015,2.862,1.685
						c0.251-0.988-0.788-2.712-2.666-3.104C176.171,268.887,174.896,271.076,174.896,271.076z"/>
				</g>
				<path style="fill:#FAFAFF;" d="M164.161,294.33c4.413,2.853,9.498,3.182,9.498,3.182s-3.092,2.81-6.323,2.821
					C164.105,300.345,164.161,294.33,164.161,294.33z"/>
			</g>
			<g>
				<path style="fill:#FAFAFF;" d="M150.038,287.575l23.297-4.108c4.289-0.756,7.152-4.846,6.396-9.135l-0.685-3.883
					c-0.756-4.289-4.846-7.152-9.135-6.396l-23.297,4.108c-4.289,0.756-7.153,4.846-6.396,9.135l0.685,3.883
					C141.659,285.467,145.749,288.331,150.038,287.575z"/>
				<path style="fill:#BF504C;" d="M157.803,286.205l23.297-4.108c4.289-0.756,7.152-4.846,6.396-9.135l-0.685-3.883
					c-0.756-4.289-4.846-7.152-9.135-6.396l-23.297,4.108c-4.289,0.756-7.153,4.846-6.396,9.135l0.685,3.883
					C149.425,284.098,153.514,286.962,157.803,286.205z"/>
				<path style="fill:#FAFAFF;" d="M185.555,273.306l-0.685-3.883c-0.567-3.217-3.635-5.364-6.851-4.797l-23.296,4.108
					c-3.217,0.567-5.364,3.634-4.797,6.851l0.685,3.883c0.567,3.217,3.635,5.364,6.851,4.797l23.296-4.108
					C183.974,279.59,186.122,276.522,185.555,273.306z"/>
				<path style="fill:#BF504C;" d="M121.899,284.196l22.837-4.027l-1.125-6.379l-22.837,4.027c-1.072,0.189-1.788,1.212-1.599,2.284
					l0.44,2.497C119.804,283.669,120.826,284.385,121.899,284.196z"/>
				<g>
					<defs>
						<path id="SVGID_1_" d="M150.61,279.467l-0.685-3.883c-0.567-3.217,1.581-6.284,4.797-6.851l23.296-4.108
							c3.217-0.567,6.284,1.581,6.851,4.797l0.685,3.883c0.567,3.217-1.581,6.284-4.797,6.851l-23.296,4.108
							C154.244,284.832,151.177,282.684,150.61,279.467z"/>
					</defs>
					<clipPath id="SVGID_00000044881692695739186070000011096824852977791395_">
						<use xlink:href="#SVGID_1_"  style="overflow:visible;"/>
					</clipPath>
					<g style="opacity:0.35;clip-path:url(#SVGID_00000044881692695739186070000011096824852977791395_);">
						
							<rect x="172.307" y="251.439" transform="matrix(-0.766 0.6428 -0.6428 -0.766 481.1004 366.0905)" style="fill:#96C1FA;" width="3.237" height="38.323"/>
						
							<rect x="161.49" y="259.874" transform="matrix(-0.7661 0.6428 -0.6428 -0.7661 469.9543 387.0238)" style="fill:#96C1FA;" width="6.111" height="38.323"/>
					</g>
				</g>
				<path style="fill:#BF504C;" d="M164.999,275.929l5.824-1.027c0.536-0.095,0.894-0.606,0.8-1.142l0,0
					c-0.095-0.536-0.606-0.894-1.142-0.799l-5.824,1.027c-0.536,0.095-0.894,0.605-0.799,1.142l0,0
					C163.952,275.666,164.463,276.024,164.999,275.929z"/>
			</g>
			<g>
				<path style="fill:#E7B7B7;" d="M133.622,279.662c-3.84-3.501-9.91-1.178-10.491,4.164c-0.4,3.674,2.349,13.376,12.178,10.954
					C135.309,294.78,136.432,282.225,133.622,279.662z"/>
				<path style="fill:#7A1F0C;" d="M133.923,289.33c-0.042,0.008-0.085,0.009-0.132,0.007c-0.303-0.02-0.532-0.282-0.513-0.585
					c0.18-2.728-0.999-5.392-2.74-6.194c-1.009-0.466-2.065-0.201-3.052,0.759c-0.216,0.21-0.563,0.209-0.779-0.01
					c-0.211-0.218-0.207-0.566,0.011-0.778c1.32-1.287,2.839-1.63,4.28-0.97c2.166,1,3.586,4.055,3.378,7.266
					C134.359,289.081,134.166,289.287,133.923,289.33z"/>
			</g>
		</g>
		<g>
			<g>
				<path style="fill:#E7B7B7;" d="M315.757,334.495c-0.851-0.674-2.797-0.301-2.797-0.301c-0.87-3.073-5.479-2.499-7.035-2.422
					c-4.595,0.227-9.223,0.601-13.848,0.604c1.293-0.191,3.888-1.361,4.547-3.056c0.828-2.126-4.752-1.103-5.721-0.958
					c-1.785,0.266-3.538,0.303-5.347,0.3c-8.685-0.014-13.734,1.926-15.317,2.713c-8.509,1.057-11.289,5.877-13.2,11.28l17.52,8.64
					c0.348-2.202,1.849-5.893,3.987-7.173c1.526-0.913,4.124-0.821,5.908-0.98c5.578-0.499,11.124-0.993,16.743-1.26
					c5.111-0.243,7.662-0.458,12.512-1.717c0.051-0.39,0.136-0.914,0.141-1.409C316.441,338.605,318.345,336.543,315.757,334.495z"
					/>
				<g>
					
						<path style="fill:none;stroke:#7A1F0C;stroke-width:0.8994;stroke-linecap:round;stroke-linejoin:round;stroke-miterlimit:10;" d="
						M312.96,334.193c-1.714-0.102-6.09-0.193-12.345,0.08c-1.264,0.055-8.549-0.133-9.8-0.273"/>
					
						<path style="fill:none;stroke:#7A1F0C;stroke-width:0.8994;stroke-linecap:round;stroke-linejoin:round;stroke-miterlimit:10;" d="
						M290.31,338.005c3.531-0.028,4.05,0.292,6.394,0.315c1.613,0.016,3.328-0.033,4.946,0.045c0.983,0.047,2.35-0.057,3.061,0.764
						c0.513,0.592,0.939,1.272,0.202,2.341"/>
					
						<path style="fill:none;stroke:#7A1F0C;stroke-width:0.8994;stroke-linecap:round;stroke-linejoin:round;stroke-miterlimit:10;" d="
						M313.851,338.756c0.004-0.383-0.039-0.75-0.182-1.024c-0.661-1.269-2.579-1.213-3.763-1.257
						c-4.897-0.182-7.493-0.097-12.396-0.097c-1.419,0-5.755-0.36-7.02-0.623"/>
					
						<path style="fill:none;stroke:#7A1F0C;stroke-width:0.8994;stroke-linecap:round;stroke-linejoin:round;stroke-miterlimit:10;" d="
						M292.077,332.376c-0.661,0-1.322-0.015-1.985-0.05c-0.974-0.051-4.549-0.312-8.022-0.555"/>
				</g>
			</g>
			<g>
				<path style="fill:#BF504C;" d="M109.44,331.015c-32.435,9.87-53.28,84.232-53.28,84.232L44.07,476h30.438
					c0,0,10.385-47.81,12.459-54.162c2.073-6.352,22.973-46.608,22.973-46.608L109.44,331.015z"/>
				<path style="fill:#BF504C;" d="M188.11,329.565c25.43,4.66,46.85,57.01,46.85,57.01s15.365-33.989,20.402-45.915l22.607,7.846
					c0,0-15.889,68.277-40.129,74.308c-25.619,6.374-49.73-48.48-49.73-48.48V329.565z"/>
				<path style="fill:#E58A45;" d="M234.6,385.715c-4.08,20.42-18,30.12-18,30.12c-5.19-4.37-9.96-10.17-14.05-16.04l1.81,76.2
					H89.37l9.17-78.48c-5.26,10.45-10.58,21.27-11.57,24.32c0,0-19.05,0-28.13-15.16c6.6-19.85,24.98-67.86,50.6-75.66l21.72-1.45
					h56.95C211.61,333.875,231.69,378.915,234.6,385.715z"/>
				<path style="fill:#BF504C;" d="M128.906,438.715h57.214c0,0-0.867,9.448,4.2,15.9c4.879,6.212,12.69,9.435,12.69,9.435
					l0.405,11.95h-99.557l1.686-12.565c0,0,10.736-2.1,15.656-7.23C129.024,448.046,128.906,438.715,128.906,438.715z"/>
			</g>
			<g>
				<path style="fill:#FAFAFF;" d="M130.02,329.565h38.88c0,16.54-3.42,24.928-14.31,24.928
					C131.788,354.493,130.02,329.565,130.02,329.565z"/>
				<path style="fill:#E7B7B7;" d="M130.02,329.565h38.88C168.9,347.995,137.7,353.455,130.02,329.565z"/>
			</g>
			<g>
				
					<path style="fill:none;stroke:#7A1F0C;stroke-width:1.7989;stroke-linecap:round;stroke-linejoin:round;stroke-miterlimit:10;" d="
					M98.704,396.127c0.681-13.66,1.766-30.912,1.766-30.912"/>
				
					<path style="fill:none;stroke:#7A1F0C;stroke-width:1.7989;stroke-linecap:round;stroke-linejoin:round;stroke-miterlimit:10;" d="
					M202.368,397.79c0-15.295-1.508-33.987-1.508-33.987"/>
				
					<path style="fill:none;stroke:#7A1F0C;stroke-width:1.7989;stroke-linecap:round;stroke-linejoin:round;stroke-miterlimit:10;" d="
					M154.59,354.493c6.93,45.162,3.551,120.537,3.551,120.537"/>
				
					<path style="fill:none;stroke:#7A1F0C;stroke-width:1.7989;stroke-linecap:round;stroke-linejoin:round;stroke-miterlimit:10;" d="
					M234.96,386.575c-4.05,10.02-5.58,22.98-5.58,22.98"/>
			</g>
			<g>
				<path style="fill:#BF504C;" d="M165.636,325.722c2.004,16.648-10.861,23.809-11.046,28.771
					c-0.185,4.962,7.29,10.722,7.29,10.722C181.451,348.506,173.862,327.772,165.636,325.722z"/>
				<path style="fill:#BF504C;" d="M132.232,325.722c-0.862,17.683,22.173,23.809,22.358,28.771
					c0.185,4.962-7.11,10.722-7.11,10.722C119.258,346.875,124.006,327.772,132.232,325.722z"/>
			</g>
		</g>
	</g>
	<g>
		
			<circle style="fill:none;stroke:#96C1FA;stroke-width:1.7989;stroke-linecap:round;stroke-linejoin:round;stroke-miterlimit:10;" cx="285.485" cy="295.875" r="30"/>
		
			<path style="fill:none;stroke:#96C1FA;stroke-width:1.7989;stroke-linecap:round;stroke-linejoin:round;stroke-miterlimit:10;" d="
			M278.032,266.809c-1.402,0.358-2.763,0.817-4.078,1.365c1.33,0.75,2.392,1.835,2.392,2.981c0,2.28-0.057,8.951,3.931,8.315
			c3.989-0.635,3.749-5.435,6.989-3.395c2.819,1.775,11.99-1.086,11.247-7.231c-2.615-1.263-5.442-2.157-8.413-2.616
			L278.032,266.809z"/>
		
			<path style="fill:none;stroke:#96C1FA;stroke-width:1.7989;stroke-linecap:round;stroke-linejoin:round;stroke-miterlimit:10;" d="
			M255.804,291.513c1.552,4.31,2.992,6.553,5.038,7.89c0.646,0.422,4.826,2.657,5.314,1.382c0.488-1.275,0.266-2.612,1.01-3.038
			c0.744-0.425,4.251,1.656,3.666,3.941c-0.584,2.285-4.038,1.328-2.71,4.942c1.328,3.613,4.889,10.574,7.652,9.671
			c0.791-0.259,1.34-8.21,1.467-9.565c0.127-1.355,4.511-6.819,2.518-8.989c-1.993-2.17-5.633-5.381-7.299-4.163
			c-0.932,0.681-3.182,1.953-3.501,1.475c-0.319-0.478-0.623-5.603,1.873-4.955c1.642,0.426,5.461-2.221,5.717-2.713
			c0.881-1.688-0.329-3.866-3.623-7.054c-2.673-2.587-4.14-6.57-4.348-9.243C261.812,275.718,257.039,283.041,255.804,291.513z"/>
		
			<path style="fill:none;stroke:#96C1FA;stroke-width:1.7989;stroke-linecap:round;stroke-linejoin:round;stroke-miterlimit:10;" d="
			M306.279,282.375c-1.733-1.499-10.254-1.139-9.353,1.261c0.9,2.4,8.1,2.76,6.06,5.52c-2.04,2.76-8.04,0.259-8.52,5.889
			s4.2,4.641,5.1,8.241c0.9,3.6-3.51,11.997,0.45,11.758c3.394-0.204,6.463-12.981,14.806-12.892
			c0.431-2.025,0.663-4.124,0.663-6.277c0-6.263-1.921-12.075-5.203-16.885C309.114,281.233,307.454,283.392,306.279,282.375z"/>
	</g>
</g>
</svg>
